# xmcd
#
# Track frame offsets: 
#        150
#        12682
#        28716
#        41674
#        53451
#        68020
#        77444
#        88573
#        103482
#        116140
#        127821
#        139589
#
# Disc length: 2001 seconds
#
# Revision: 0
# Processed by: cddbd v1.5.2PL0 Copyright (c) Steve Scherf et al.
# Submitted via: ExactAudioCopy v1.1
#
DISCID=9907cf0c
DTITLE=Buddy Davis - I Am Not Ashamed of the Gospel of Christ
DYEAR=2010
DGENRE=Country
TTITLE0=I'm Not Ashamed
TTITLE1=Already Gone
TTITLE2=Jesus, My Creator
TTITLE3=Increase My Faith
TTITLE4=King of Kings
TTITLE5=When Good Became Evil
TTITLE6=God Is Our Refuge
TTITLE7=If Heaven Had a Window
TTITLE8=The Ark Door Is Open
TTITLE9=Singing With the Saints
TTITLE10=Wings as Eagles
TTITLE11=For I am Not Ashamed
EXTD=
EXTT0=
EXTT1=
EXTT2=
EXTT3=
EXTT4=
EXTT5=
EXTT6=
EXTT7=
EXTT8=
EXTT9=
EXTT10=
EXTT11=
PLAYORDER=
